<svg xmlns="http://www.w3.org/2000/svg" version="1.1" xmlns:xlink="http://www.w3.org/1999/xlink" viewBox="0 0 200 200"><rect width="200" height="200" fill="url('#gradient')"></rect><defs><linearGradient id="gradient" gradientTransform="rotate(82 0.5 0.5)"><stop offset="0%" stop-color="#070707"></stop><stop offset="100%" stop-color="#070707"></stop></linearGradient></defs><g><g fill="#f2f4f8" transform="matrix(5.215461573442474,0,0,5.215461573442474,42.16166482736111,136.56210333458563)" stroke="#161514" stroke-width="0"><path d="M6.74-4.46L6.74-14.22L10.16-14.22L10.16-4.46Q10.16-3.11 9.53-2.04Q8.90-0.98 7.77-0.39Q6.64 0.20 5.25 0.20L5.25 0.20Q2.93 0.20 1.64-0.98Q0.35-2.15 0.35-4.30L0.35-4.30L3.79-4.30Q3.79-3.32 4.13-2.88Q4.46-2.44 5.25-2.44L5.25-2.44Q5.97-2.44 6.35-2.97Q6.74-3.51 6.74-4.46L6.74-4.46ZM21.27-8.30L21.27-5.66L15.74-5.66L15.74 0L12.31 0L12.31-14.22L21.83-14.22L21.83-11.57L15.74-11.57L15.74-8.30L21.27-8.30Z"></path></g></g></svg>